PathFileType   4   (X/Y/Z)																																																																																																																							
DataRate  CameraRate  NumFrames  NumMarkers  Units  OrigDataRate  OrigDataStartFrame  OrigNumFrames  																																																																																																																							
  120.0      120.0        10         39         mm      120.0          69        109																																																																																																																							
Frame#      Time	midhip		hip_r		hip_l		knee_r		knee_l		ankle_r		ankle_l		midasis		asis_r		asis_l		psis_r		psis_l		epicondLat_r		epicondLat_l		epicondMed_r		epicondMed_l		malleolusLat_r		malleolusLat_l		malleolusMedv_r		malleolusMedv_l		heel_r		heel_l		sternalnotch		xyphoidprocess		neck		subclavicle_r		subclavicle_l		toe_r		toe_l		thighwand_r		thighwand_l		upperleg1_r		upperleg1_l		upperleg2_r		upperleg2_l		shankwand_r		shankwand_l		lowerleg1_r		lowerleg1_l		
              X1          Y1          Z1          X2          Y2          Z2          X3          Y3          Z3          X4          Y4          Z4          X5          Y5          Z5          X6          Y6          Z6          X7          Y7          Z7          X8          Y8          Z8          X9          Y9          Z9          X10          Y10          Z10          X11          Y11          Z11          X12          Y12          Z12          X13          Y13          Z13          X14          Y14          Z14          X15          Y15          Z15          X16          Y16          Z16          X17          Y17          Z17          X18          Y18          Z18          X19          Y19          Z19          X20          Y20          Z20          X21          Y21          Z21          X22          Y22          Z22          X23          Y23          Z23          X24          Y24          Z24          X25          Y25          Z25          X26          Y26          Z26          X27          Y27          Z27          X28          Y28          Z28          X29          Y29          Z29          X30          Y30          Z30          X31          Y31          Z31          X32          Y32          Z32          X33          Y33          Z33          X34          Y34          Z34          X35          Y35          Z35          X36          Y36          Z36          X37          Y37          Z37          X38          Y38          Z38          X39          Y39          Z39          																																																																																																																							

	69	1.59167	1471.726	881.608	-253.66	1467.977	879.831	-178.559	1475.475	883.385	-328.76	1443.521	470.389	-133.807	1433.605	460.522	-355.579	1406.132	69.511	-128.375	1383.016	71.247	-365.178	1565.19	960.588	-247.125	1559.248	957.772	-128.087	1571.133	963.405	-366.163	1378.732	1017.603	-223.699	1388.251	1015.737	-308.204	1452.245	476.159	-76.25	1441.398	463.391	-412.981	1427.39	478.115	-187.251	1428.316	466.71	-302.246	1391.297	71.398	-91.275	1365.144	74.421	-399.696	1415.936	83.546	-158.177	1391.477	83.951	-337.27	1342.808	42.531	-143.993	1317.471	42.972	-352.084	1485.715	1369.896	-236.419	1568.34	1206.453	-247.284	1371.981	1436.179	-241.275	1494.572	1358.44	-183.746	1509.431	1365.281	-291.512	1525.865	39.502	-99.188	1500.552	41.162	-401.746	1505.743	591.457	-10.607	1595.725	552.842	-341.139	1521.826	652.063	-83.601	1536.505	618.248	-383.049	1513.229	563.823	-99.54	1510.948	536.024	-386.019	1418.169	204.953	-6.21	1406.677	211.555	-479.754	1406.648	172.202	-79.316	1385.904	174.298	-410.934
	70	1.6	1471.717	881.597	-253.769	1467.925	879.83	-178.67	1475.509	883.364	-328.867	1443.441	470.39	-133.85	1433.555	460.553	-355.525	1406.141	69.449	-128.395	1383.003	71.252	-365.187	1565.179	960.576	-247.191	1559.169	957.776	-128.153	1571.19	963.377	-366.229	1378.697	1017.605	-223.742	1388.321	1015.706	-308.568	1452.187	476.167	-76.296	1441.354	463.398	-412.928	1427.536	477.989	-187.197	1428.55	466.681	-302.163	1391.321	71.332	-91.29	1365.136	74.429	-399.708	1415.853	83.574	-158.213	1391.513	84.026	-337.305	1342.806	42.522	-143.996	1317.442	42.995	-352.056	1485.685	1369.779	-236.618	1568.162	1206.262	-247.487	1372.047	1436.105	-241.226	1494.614	1358.354	-184.047	1509.313	1365.103	-291.641	1525.865	39.538	-99.119	1500.58	41.138	-401.735	1505.651	591.469	-10.687	1595.764	552.851	-341.122	1521.763	652.253	-83.736	1536.501	618.34	-383.083	1513.235	563.826	-99.573	1511.07	536.05	-385.988	1418.149	204.964	-6.249	1406.699	211.56	-479.765	1406.616	172.23	-79.464	1385.899	174.256	-410.906
	71	1.60833	1471.693	881.579	-253.863	1467.866	879.814	-178.767	1475.52	883.343	-328.96	1443.361	470.385	-133.87	1433.469	460.571	-355.469	1406.137	69.411	-128.415	1382.973	71.25	-365.188	1565.151	960.559	-247.245	1559.085	957.762	-128.217	1571.216	963.357	-366.272	1378.669	1017.592	-223.737	1388.418	1015.648	-308.907	1452.134	476.171	-76.322	1441.295	463.392	-412.869	1427.651	477.962	-187.219	1428.202	467.217	-301.915	1391.334	71.29	-91.302	1365.125	74.427	-399.719	1415.806	83.596	-158.242	1391.376	83.814	-337.32	1342.806	42.522	-144.01	1317.427	43.02	-352.049	1485.65	1369.657	-236.757	1567.972	1206.051	-247.466	1372.068	1436.048	-241.156	1494.642	1358.312	-184.248	1509.198	1364.869	-291.731	1525.862	39.563	-99.084	1500.594	41.108	-401.713	1505.583	591.47	-10.757	1595.81	552.86	-341.114	1521.723	652.38	-83.774	1536.598	618.166	-383.424	1513.242	563.835	-99.591	1510.97	536.064	-385.995	1418.13	204.993	-6.256	1406.729	211.56	-479.779	1406.546	172.198	-79.336	1385.964	173.995	-410.875
	72	1.61667	1471.672	881.561	-253.941	1467.814	879.795	-178.846	1475.53	883.327	-329.036	1443.306	470.38	-133.881	1433.385	460.575	-355.422	1406.126	69.392	-128.421	1382.938	71.252	-365.188	1565.118	960.553	-247.283	1559.004	957.754	-128.273	1571.232	963.351	-366.293	1378.635	1017.571	-223.706	1388.501	1015.582	-309.204	1452.098	476.174	-76.336	1441.244	463.374	-412.819	1427.675	477.903	-187.166	1427.853	467.793	-301.639	1391.336	71.268	-91.303	1365.111	74.429	-399.73	1415.794	83.607	-158.259	1391.25	83.465	-337.317	1342.806	42.536	-144.036	1317.432	43.046	-352.066	1485.665	1369.648	-236.724	1568.075	1206.083	-247.385	1371.907	1436.076	-241.271	1494.642	1358.312	-184.248	1509.238	1364.867	-291.649	1525.856	39.59	-99.063	1500.589	41.082	-401.691	1505.536	591.459	-10.823	1595.86	552.871	-341.116	1521.739	652.425	-83.861	1536.7	617.985	-383.797	1513.242	563.835	-99.591	1510.87	536.078	-386.002	1418.115	205.025	-6.236	1406.768	211.557	-479.792	1406.407	172.13	-79.09	1385.846	173.83	-410.969
	73	1.625	1471.641	881.558	-254.003	1467.757	879.79	-178.909	1475.526	883.327	-329.096	1443.267	470.369	-133.875	1433.378	460.569	-355.422	1406.132	69.366	-128.411	1382.915	71.26	-365.197	1565.08	960.555	-247.308	1558.925	957.753	-128.323	1571.236	963.358	-366.294	1378.595	1017.561	-223.67	1388.564	1015.548	-309.436	1452.072	476.172	-76.334	1441.253	463.358	-412.817	1427.618	477.87	-187.119	1428.25	467.38	-301.766	1391.349	71.241	-91.29	1365.098	74.437	-399.743	1415.788	83.618	-158.247	1391.169	83.239	-337.261	1342.808	42.552	-144.054	1317.453	43.062	-352.097	1485.712	1369.684	-236.767	1568.209	1206.167	-247.494	1371.822	1436.147	-241.546	1494.658	1358.313	-184.35	1509.325	1364.956	-291.62	1525.828	39.608	-99.057	1500.575	41.063	-401.674	1505.503	591.438	-10.875	1595.902	552.886	-341.127	1521.814	652.388	-84.027	1536.611	618.231	-383.569	1513.243	563.888	-99.619	1510.97	536.064	-385.995	1418.095	205.048	-6.207	1406.81	211.55	-479.806	1406.421	172.132	-78.958	1385.768	173.738	-410.995
	74	1.63333	1471.597	881.573	-254.062	1467.687	879.8	-178.969	1475.507	883.346	-329.154	1443.228	470.354	-133.848	1433.471	460.558	-355.49	1406.152	69.337	-128.398	1382.901	71.277	-365.211	1565.042	960.56	-247.33	1558.848	957.75	-128.372	1571.236	963.369	-366.289	1378.556	1017.569	-223.647	1388.614	1015.57	-309.603	1452.05	476.168	-76.31	1441.34	463.351	-412.886	1427.585	477.969	-187.237	1428.795	466.746	-302.056	1391.38	71.207	-91.273	1365.081	74.454	-399.756	1415.824	83.615	-158.228	1391.181	83.248	-337.217	1342.812	42.562	-144.06	1317.475	43.033	-352.12	1485.779	1369.731	-236.84	1568.37	1206.266	-247.635	1371.969	1436.085	-241.714	1494.673	1358.313	-184.452	1509.455	1365.068	-291.641	1525.764	39.598	-99.082	1500.561	41.059	-401.666	1505.478	591.409	-10.918	1595.917	552.901	-341.148	1521.879	652.292	-84.029	1536.501	618.716	-383.104	1513.245	563.932	-99.641	1511.07	536.05	-385.988	1418.059	205.057	-6.188	1406.867	211.544	-479.834	1406.401	172.147	-78.936	1385.96	173.78	-410.954
	75	1.64167	1471.553	881.606	-254.118	1467.62	879.826	-179.027	1475.487	883.385	-329.209	1443.19	470.34	-133.807	1433.638	460.542	-355.602	1406.158	69.329	-128.385	1382.902	71.293	-365.227	1565.013	960.572	-247.351	1558.782	957.753	-128.413	1571.243	963.391	-366.288	1378.526	1017.601	-223.648	1388.631	1015.64	-309.753	1452.039	476.166	-76.274	1441.485	463.348	-413	1427.582	478.046	-187.33	1428.976	466.596	-302.152	1391.403	71.194	-91.253	1365.066	74.472	-399.763	1415.882	83.572	-158.203	1391.247	83.411	-337.233	1342.815	42.57	-144.067	1317.486	42.961	-352.12	1485.762	1369.769	-236.849	1568.404	1206.329	-247.623	1372.098	1435.998	-241.8	1494.722	1358.393	-184.437	1509.376	1365.077	-291.703	1525.671	39.555	-99.14	1500.541	41.078	-401.669	1505.462	591.378	-10.954	1595.904	552.912	-341.173	1521.9	652.255	-83.983	1536.482	619.016	-382.929	1513.244	563.941	-99.648	1511.07	536.05	-385.988	1418.007	205.055	-6.181	1406.935	211.547	-479.876	1406.179	172.167	-78.894	1386.168	173.919	-410.837
	76	1.65	1471.512	881.65	-254.161	1467.562	879.867	-179.071	1475.462	883.433	-329.25	1443.158	470.331	-133.769	1433.848	460.523	-355.735	1406.148	69.344	-128.372	1382.915	71.302	-365.241	1564.99	960.593	-247.369	1558.733	957.77	-128.44	1571.246	963.416	-366.298	1378.499	1017.654	-223.665	1388.621	1015.732	-309.917	1452.038	476.166	-76.242	1441.663	463.349	-413.136	1427.58	478.06	-187.339	1429.016	466.65	-302.107	1391.413	71.204	-91.232	1365.059	74.482	-399.766	1415.907	83.528	-158.19	1391.277	83.66	-337.225	1342.818	42.58	-144.08	1317.484	42.888	-352.104	1485.635	1369.791	-236.832	1568.187	1206.291	-247.378	1372.12	1435.992	-241.865	1494.788	1358.586	-184.266	1509.041	1364.91	-291.919	1525.576	39.497	-99.216	1500.516	41.117	-401.684	1505.457	591.351	-10.988	1595.878	552.919	-341.201	1521.901	652.265	-83.989	1536.48	619.095	-382.971	1513.242	563.951	-99.654	1511.07	536.05	-385.988	1417.944	205.043	-6.187	1406.993	211.559	-479.918	1406.122	172.214	-78.963	1386.165	173.971	-410.69
	77	1.65833	1471.47	881.696	-254.191	1467.507	879.918	-179.102	1475.433	883.475	-329.28	1443.138	470.327	-133.747	1434.039	460.497	-355.868	1406.138	69.363	-128.36	1382.92	71.312	-365.251	1564.967	960.615	-247.388	1558.691	957.799	-128.46	1571.244	963.431	-366.316	1378.481	1017.712	-223.688	1388.587	1015.827	-310.028	1452.044	476.167	-76.224	1441.828	463.343	-413.272	1427.706	478.011	-187.295	1429.191	466.668	-302.13	1391.419	71.22	-91.213	1365.046	74.492	-399.768	1415.954	83.497	-158.182	1391.428	83.947	-337.221	1342.826	42.589	-144.098	1317.479	42.839	-352.09	1485.56	1369.855	-236.786	1568.08	1206.329	-247.178	1372.156	1436.009	-241.865	1494.775	1358.733	-183.971	1508.899	1364.884	-292.15	1525.516	39.445	-99.271	1500.494	41.169	-401.709	1505.457	591.33	-11.026	1595.845	552.929	-341.228	1521.901	652.265	-83.989	1536.509	619.195	-383.034	1513.297	564.02	-99.606	1511.206	536.116	-386.011	1417.883	205.027	-6.211	1407.031	211.57	-479.955	1406.37	172.244	-79.241	1386.15	173.952	-410.631
	78	1.66667	1471.428	881.74	-254.213	1467.454	879.973	-179.124	1475.402	883.507	-329.302	1443.133	470.321	-133.744	1434.143	460.459	-355.969	1406.133	69.372	-128.35	1382.912	71.322	-365.251	1564.944	960.636	-247.407	1558.65	957.837	-128.478	1571.238	963.434	-366.336	1378.491	1017.758	-223.711	1388.541	1015.914	-310.039	1452.058	476.163	-76.225	1441.93	463.318	-413.373	1427.81	478.011	-187.286	1429.516	466.511	-302.352	1391.427	71.229	-91.198	1365.036	74.498	-399.767	1415.95	83.48	-158.178	1391.57	84.087	-337.258	1342.836	42.592	-144.112	1317.478	42.82	-352.084	1485.591	1369.946	-236.773	1568.2	1206.47	-247.252	1372.193	1436.026	-241.851	1494.744	1358.766	-183.832	1509.003	1365.05	-292.248	1525.509	39.409	-99.291	1500.479	41.213	-401.736	1505.464	591.318	-11.068	1595.788	552.945	-341.262	1521.901	652.265	-83.989	1536.545	619.274	-383.102	1513.347	564.12	-99.576	1511.498	536.207	-386.103	1417.83	205.02	-6.25	1407.056	211.571	-479.978	1406.512	172.257	-79.317	1386.186	173.946	-410.69
